<svg xmlns="http://www.w3.org/2000/svg" width="1024" height="452" fill="#fff" viewBox="0 0 1024 339"><path d="M642 36c-6.4.9-18.3 5-25.5 8.9-7.6 4-24.4 15.3-31.6 21.2-30.5 25.3-58.7 62.1-67.3 88.1-2.5 7.5-5.6 24.2-5.6 30 0 20.6 8.4 35.5 24.6 43.4 19.4 9.6 45.3 4.4 73.9-14.7 19.3-12.9 36.4-31.4 41.4-44.6l2.2-5.8 18.2-.2c10-.2 22-.7 26.7-1.2s14.8-1.7 22.6-2.5c7.7-.9 28.6-3.7 46.5-6.2 71.5-10 93.2-12.3 127.4-13.1 24.5-.6 36.1.5 50.3 4.9 6.9 2.1 14.2 8 14.2 11.5 0 2.9-2.8 5.9-7.5 8.3l-4 2.1 4.8-.4c13.1-1.2 14.3-14.9 2.1-24.2-5-3.9-17.2-8-29.6-10-12.1-1.9-45.3-2-65.5 0-25.2 2.4-35 3.8-93.3 13-9.1 1.4-21 3.2-26.5 4.1-5.5.8-14 2.1-19 2.9-17.2 2.8-36.1 4.7-51.2 5.2l-15.3.5v-2.7c0-4.1-3-8.3-6.7-9.6-2.7-.9-4-.7-7 .8-7.7 3.8-6.3 10.8 2.7 14 2.7 1 5 2.1 5 2.6 0 1.6-5.4 11.4-9.5 17.2-5.6 7.8-19 21-28.5 27.8-23.7 17.2-51.6 24-67.2 16.4-25-12.3-23.2-49.7 4.8-95.8 12.8-21.2 21.5-32.1 40.2-50 28.9-27.9 54.8-41.3 68.7-35.5 7.2 3 9.5 14.6 5.4 26.9-3.1 9.1-12.2 26.5-18.1 34.3-10.5 14.1-31.3 32.4-36.7 32.4-3.5 0 1-11.4 9.1-23.2 7.1-10.4 18.5-22.2 26.3-27.4 8.2-5.4 5.5-7.3-4.6-3.2-15.7 6.4-35.3 26.3-39.4 40.1-2.4 8-2 12.4 1.4 15.8 2.5 2.4 3.8 2.9 7.8 2.9 5.8 0 10.2-2.5 21-12.1 19.2-17.1 37.3-48.2 39.8-68.2 1.3-10-3.2-19.5-11-23.5-3.1-1.5-10.4-2.1-16.5-1.2m7.4 114.6c.7 1.9.8 6.4.1 6.4-2 0-7.5-3.1-7.5-4.2 0-3.5 6.2-5.3 7.4-2.2"/><path d="M555.5 51.3c-10.8 5.8-29.3 19.2-45 32.6-11.5 9.8-59.5 57.2-79.8 78.9-7.6 8.1-18.7 19.9-24.8 26.2l-11 11.5 7.5-14.5c4.1-8 10.9-22.4 15.1-32 10.4-23.7 17.1-36.8 27.2-52.9 9-14.4 14.2-21.1 23.6-30.4 3.2-3.1 5.5-6.2 5.1-6.8-.9-1.6-7.9-.3-16.5 3.1-25.3 9.8-35.7 16.7-105.5 70.2-31.9 24.4-80.7 57.5-108.9 73.8-35.6 20.5-70.7 33-93.1 33-8.1 0-19.9-3-25.7-6.4-15.3-9.2-15-28 .7-42.9l6.1-5.9.6 13.9c.4 7.6.7 17.7.8 22.5 0 5.1.5 8.8 1.1 8.8s1-8.5 1-23.4v-23.4l7.8-4c10.2-5.3 21.6-9 33.2-10.6l9.5-1.4-7.8-.1c-10-.1-21 2.2-31.7 6.6-4.7 1.9-9.1 3.7-9.8 4-1 .4-1.2-12.4-1-63.6l.3-64.2L336 54c176.6 0 201.8-.2 203.5-1.5 1.8-1.3-21.6-1.4-202.6-1.5H132.3l-.7 6.1c-.3 3.4-.6 33.5-.6 66.8v60.7l-6.5 4.3c-16.1 10.5-22.1 27.4-15 41.6 6.7 13.2 23.3 20.4 46.6 20.5 31.4 0 67.8-14.6 114.5-46.1 18.9-12.8 51.1-37 83.4-62.9 23.1-18.5 43.6-34.5 53.9-41.9 14-10.1 45.2-28.4 45.1-26.4-.1.5-1.6 2-3.5 3.4C431.6 90.7 402 123.8 371 165c-20.7 27.5-36.9 47.1-49.9 60.3-12.9 13.3-21.1 18.7-28.2 18.7-3.7 0-3.5 2.1.4 3.4 2.1.8 4 .3 10-2.7 12.8-6.3 30.4-24.7 57.4-59.8 24.3-31.5 37.6-48.5 44.6-56.9 11.2-13.5 24-27.7 25.5-28.4.6-.3-1.2 2.9-4.2 7.2-4.9 7.1-9.1 14.1-17.6 29.7-1.7 3.3-7.9 16.3-13.6 28.8-18.1 39.7-27 56.3-33.6 62.9-4.9 4.9 1.1 7.6 7 3.1 5.9-4.4 37.8-36.6 65.4-65.8 47.2-50.1 71.5-73.4 94.1-90.4 7.1-5.4 8.5-4.9 1.8.7-5.1 4.3-18.9 19.6-28.6 31.7-13.2 16.5-28.8 42.5-34.4 57.6-3.6 9.5-5.1 18.1-5.1 29 0 12.3 1.6 18.8 6 24.1 3.3 4 12 8.8 15.9 8.8 3.8 0 9.4-1.7 11.6-3.6 1.1-.8 1.4-1.3.7-.9-2.1 1.1-9.1.8-12.2-.5-1.6-.7-4-2.9-5.2-4.9-3.4-5.4-3.2-19.2.5-32.6 7.5-27.4 19.2-50.5 41.6-82 12.3-17.2 19-25.4 32.8-39.5 6.8-6.9 12.1-13.1 11.8-13.8-.7-2-3.6-1.4-10 2.1m18.1 1.2c-.4 1.3.7 1.5 7.2 1.5 5.3 0 8.4-.5 9.8-1.5 1.7-1.3 1-1.4-7.2-1.5-7.3 0-9.3.3-9.8 1.5m103.6-.3c.4 1 10.8 1.4 46.6 1.6l46.2.2v41.6c0 32.8.3 41.5 1.3 41.2.9-.4 1.3-8.7 1.5-35.9.2-19.5 0-38.7-.3-42.7l-.7-7.2h-47.5c-37.5 0-47.4.3-47.1 1.2M770 196.4c0 22.9.4 37.6.9 37.6 2 0 2.3-74.1.4-74.7-1-.4-1.3 7.5-1.3 37.1m-149.5 40.8c-38.8.8-97.2 3.6-123.5 5.8-6.9.6-21 1.7-31.5 2.5-53.6 4.3-128.7 14.6-193 26.5-22.3 4.1-70 14.5-80.7 17.6-1.8.5-2.5 4.8-1 5.8.4.2 4.2-.4 8.4-1.4s13.4-2.8 20.5-3.9c7-1.1 25.4-4.1 40.8-6.6 39.9-6.5 45.3-7.3 52-8 3.3-.3 13.2-1.5 22-2.5s23.7-2.6 33-3.5c9.4-.9 21.5-2 27-2.5 16-1.6 48.8-3.6 97.5-6 10.7-.5 31-1.7 45-2.5 54.3-3.3 113.2-4.6 110-2.5-.8.5-2.4 1-3.6 1-1.1 0-4.3 1.2-7.2 2.6-12.9 6.4-5.9 17.6 14.6 23.2 11 3 20.3 4.1 35.7 4.2 14.6.1 14.8.9 1 3.5-15.9 3.1-37.6.4-57.1-7-17.2-6.5-41.6-13.6-53.4-15.5-9.8-1.6-26.1-1.6-33 0-11.3 2.6-17.1 7.4-15 12.2 1.7 3.6 4.6 5 11.4 5.4l6.1.3-5.4-1.4c-6.6-1.6-10.1-4.7-8.5-7.3.6-.9 4-2.7 7.5-3.9 5.2-1.8 8.6-2.3 17.9-2.3 18 0 33.7 3.4 66.2 14.5 17.7 6.1 29 8.5 42.3 9.2 13.8.7 24-1.1 36.7-6.5 5.1-2.1 11.6-4.5 14.3-5.2 13.3-3.4 21.7-9.9 21.9-16.8.1-6.4-4-9.9-14.4-12.2-4-.9-7.1-.9-11-.2l-5.5 1 6.1.1c3.3 0 8.5.8 11.5 1.7 18.2 5.3 10.4 18.8-13.6 23.5-11 2.2-13.6 2.4-29 2.3-12.5-.1-18.2-.5-25.9-2.2-23.3-5.2-31-12.7-18.4-18.2 9.6-4.2 34.8-3.8 40.4.5 1.8 1.5 1.8 1.6-.5 3.5-2.9 2.5-12.4 2.7-17.8.5-4.5-1.9-4.5-1.9-4.1.7.5 3.7 6.2 6 13 5.4 11-1.1 16.6-5.4 13.8-10.6-5.3-9.8-45.3-11.9-137-7-9.6.5-26.9 1.4-38.5 1.9-11.5.6-24.8 1.3-29.5 1.6s-17.5 1-28.5 1.5c-36.9 1.8-44 2.3-82.8 6.1-17 1.7-31.6 2.9-32.5 2.7-1.7-.3 41.7-6.6 64.8-9.4 42.3-5 96.8-9.6 146-12.3 103.8-5.8 218-2.6 285 8 9 1.4 22.2 5.1 21.3 5.9-.4.4-3.4 1.5-6.6 2.4-3.1 1-5.5 2.1-5.2 2.6.7 1.1 15.1.3 17.5-1 2.7-1.4 2.7-7 0-9.5-7.1-6.4-58.4-13.3-123-16.5-46.1-2.3-72.5-2.7-114.5-1.8M132 264v8l54.3-.1c40.6-.1 55.5-.4 59.2-1.4 4.3-1.1-3.7-1.3-53.2-1.4L134 269v-6.5c0-3.7-.4-6.5-1-6.5s-1 3.3-1 8"/><path d="M770 262.5v6.5h-11.5c-9.6 0-11.5.3-11.5 1.5 0 1.3 2.1 1.5 12.5 1.5H772v-8c0-4.7-.4-8-1-8s-1 2.8-1 6.5"/></svg>