<svg xmlns="http://www.w3.org/2000/svg" width="466" height="138" fill="none" viewBox="0 0 466 138"><g stroke="#f3ffff" stroke-width="4" clip-path="url(#clip0_112_2)"><path d="M41.63 19.286c-1.67 4.807 71.314 6.338 116.032 0 62.046-6.693 104.139-10.377 99.574-17.694-.205-7.323-114.757 19.954-110.712 20.139-61.58 27.505-101.435 50.04-95.918 58.202 3.367 4.98 22.833-.734 36.572-6.355m0 0c6.563-8.505 21.313-8.292 13.631-7.846m1.995 0c7.752.331 1.304 5.677-3.751 8.73-2.015 1.217-3.808 2.07-4.394 2.096-2.057.092-6.704.303-7.481-2.98m11.875.884s20.08-11.156 17.881-8.73 28.926-1.68 18.618 0-20.435 7.526-17.122 10.826c3.188 4.066 10.107 1.232 24.104-5.472 26.12-12.607 24.104-12.688 24.104-14.085 0-1.396-10.967-.402-22.608 10.943s-.498 8.614-4.488 8.614 0 3.375 6.982 1.978c6.982-1.396 23.76-8.85 24.935-9.661 1.176-.811 8.499-5.712 11.969-8.73s-12.222 13.209-11.969 16.413c.254 3.203-23.826.292-4.821 0 19.006-.293 34.511-5.357 47.045-15.366m77.299 66.002c-3.323 1.513 24.769-26.308 28.924-24.794 4.158 1.513 1.393 3.375 0 6.169-1.39 2.794-23.427 26.414-28.924 28.287 0 0-11.137 2.561-17.454-2.328s2.852-22.861 10.805-37.366c7.953-14.506 73.7-90.239 61.174-78.342s-65.829 59.367-85.62 69.262c-19.788 9.894 62.897-85.725 60.019-84.627-2.875 1.098-49.704 49.938-51.698 49.938s-115.792 90.567-110.546 83.463 7.196-9.937 6.483-9.662 73.421-72.285 97.739-103.135c24.316-30.851-51.027 39.27-46.206 36.085m-51.533 67.05c0-27.937-200.76-38.637-157.591-39.112s456.12 3.728 449.666 3.608c-.577.065 6.393-.387 9.143 2.561 2.749 2.949-29.8 2.058-25.6 2.91M329.714 79.934l98.247-1.397"/><path d="M216.91 58.78c2.494-2.212-9.312 7.458-4.821 3.608M334.77 52.377c5.811-2.543 8.524-4.921 13.134-10.826-2.258 4.228-2.93 6.598 0 10.826-5.848 1.151-8.566 2.663-10.472 9.895 1.256-5.156-1.497-9.895-1.497-9.895m96.415 23.747c5.751-2.436 8.629-4.92 13.301-10.826-1.763 4.485.457 14.382 2.159 13.503 1.704-.879-9.136 4.645-8.811 5.937.328 1.292-2.057-6.432-5.152-8.614"/></g><defs><clipPath id="clip0_112_2"><path fill="#fff" d="M0 0h466v138H0z"/></clipPath></defs></svg>